<?xml version="1.0" encoding="UTF-8" standalone="no"?>
<!DOCTYPE svg PUBLIC "-//W3C//DTD SVG 1.1//EN" "http://www.w3.org/Graphics/SVG/1.1/DTD/svg11.dtd">
<svg width="100%" height="100%" viewBox="0 0 512 512" version="1.1" xmlns="http://www.w3.org/2000/svg" xmlns:xlink="http://www.w3.org/1999/xlink" xml:space="preserve" xmlns:serif="http://www.serif.com/" style="fill-rule:evenodd;clip-rule:evenodd;stroke-linejoin:round;stroke-miterlimit:2;">
    <path d="M0,219.5C0.081,219.02 0.931,218.926 1.012,218.445C1.747,214.106 -0.252,161.146 17.913,106.653C35.286,54.536 72.315,34.298 74.211,33.061C101.373,15.345 140.507,8.823 146.553,7.815C151.626,6.97 181.833,1.935 210.484,1.039C211.152,1.019 211.857,1.247 212.488,1.03C212.943,0.873 213.045,0.157 213.5,0L298.5,0C299.233,0.254 298.783,0.771 299.512,1.023C299.663,1.076 299.652,0.982 301.515,1.045C350.239,2.698 387.266,12.455 394.536,14.371C415.227,19.823 442.448,34.268 452.94,44.032C455.811,46.705 455.704,46.794 455.96,47.018C460.15,50.677 481.673,69.473 493.666,105.44C512.868,163.026 510.026,213.728 510.988,219.445C511.068,219.926 511.918,220.02 511.999,220.5L511.999,292.5C511.801,293.271 511.187,292.779 510.988,293.555C510.929,293.784 510.978,293.776 510.968,296.516C510.953,300.553 510.95,300.496 510.81,304.51C508.733,364.142 495.896,400.393 493.084,408.335C485.66,429.301 472.12,448.478 467.968,452.94C465.295,455.811 465.206,455.704 464.982,455.96C463.486,457.674 455.133,467.239 443.793,474.937C437.716,479.063 437.558,478.683 432.684,481.804C416.317,492.283 381.756,502.078 361.556,504.922C323.731,510.247 323.747,510.355 285.515,510.851C284.054,510.87 283.533,511.98 283.5,511.999L239.5,511.999C238.998,511.902 238.969,510.963 238.467,510.866C235.139,510.224 111.629,517.591 55.942,465.037C36.348,446.546 26.641,431.882 14.934,396.374C11.204,385.058 4.108,352.341 1.965,317.475C1.321,307.001 1.067,307.061 1.032,296.515C1.02,292.85 1.076,292.865 1.012,292.555C0.848,291.755 0.163,292.29 0,291.5L0,219.5Z"/>
    <path d="M342.079,458.135C341.953,458.139 300.839,463.705 265.707,432.135C209.106,381.272 226.872,286.233 299.98,260.367C313.938,255.429 322.562,257.401 322.64,251.768C322.664,250.012 324.23,240.513 318.623,240.145C309.531,239.547 311.263,236.113 311.404,226.981C311.528,218.965 315.25,220.556 335.921,220.524C349.292,220.504 356.922,219.087 357.097,225.734C357.262,232.033 358.246,239.389 353.34,239.889C352.767,239.947 346.145,238.945 346.027,244.326C345.957,247.523 344.483,254.807 349.506,255.682C391.26,262.956 393.462,280.245 399.973,273.683C405.465,268.147 407.961,266.521 405.842,263.742C404.192,261.579 400.497,259.367 410.434,250.736C415.212,246.586 416.704,249.736 430.122,262.83C436.186,268.747 438.285,271.139 429.774,278.692C424.075,283.75 421.844,275.588 417.986,279.346C412.114,285.065 408.239,285.734 413.321,292.145C465.222,357.606 424.428,450.826 342.079,458.135ZM360.803,434.121C367.263,431.55 383.44,426.529 400.147,405.203C410.024,392.594 415.795,373.28 415.745,365.682C415.697,358.271 398.772,365.979 396.576,358.282C393.538,347.634 412.306,352.987 415.203,349.61C419.003,345.182 405.406,284.365 345.852,275.107C333.179,273.137 345.167,293.905 334.651,294.607C325.874,295.193 329.407,280.004 328.164,276.656C325.463,269.381 260.155,286.496 252.817,345.876C251.527,356.314 270.718,346.313 272.153,355.885C273.751,366.537 252.757,358.146 252.654,365.703C252.363,387.226 277.987,433.115 323.505,437.862C334.288,438.986 323.91,422.933 332.331,419.29C341.751,415.215 339.201,435.545 340.254,437.069C342.206,439.893 359.217,434.613 360.803,434.121ZM350.056,358.364C343.114,388.029 305.617,366.681 322.344,345.925C328.03,338.871 331.864,343.79 341.955,335.771C347.596,331.289 367.757,317.878 375.934,310.576C384.81,302.65 374.991,315.991 374.71,316.373C372.834,318.921 373.301,319.173 353.681,349.867C351.166,353.802 351.264,353.824 350.056,358.364ZM334.733,364.968C345.833,362.006 342.32,353.508 339.638,350.84C329.754,341.009 318.026,363.24 334.733,364.968Z" style="fill:#bc9e53;"/>
    <path d="M167.499,424.279C156.245,423.785 157.729,419.945 107.145,370.285C95.03,358.391 92.332,353.559 102.83,347.902C113.095,342.37 111.687,333.39 101.83,329.775C100.014,329.109 83.533,325.134 69.991,307.225C28.633,252.527 92.128,187.664 92.203,187.489C94.373,182.43 69.643,158.03 68.832,150.133C67.807,140.155 69.394,94.107 73.286,91.9C78.776,88.786 82.404,92.338 102.922,119.33C115.957,136.478 120.981,154.725 124.043,154.548C128.168,154.309 128.192,147.205 128.195,146.479C128.307,114.49 123.301,112.558 133.27,101.052C153.7,77.471 171.133,52.457 176.157,53.516C179.081,54.132 180.601,55.009 179.458,90.719C178.559,118.815 166.717,128.576 177.453,125.693C177.594,125.655 215.631,114.707 209.128,121.265C206.373,124.042 171.429,136.836 160.992,183.571C156.889,201.947 158.128,235.736 182.423,259.093C218.924,294.185 253.85,277.129 236.367,290.828C215.042,307.536 181.471,297.171 178.915,299.18C175.9,301.55 173.471,326.389 169.186,315.947C159.763,292.98 158.478,292.755 156.364,292.384C148.742,291.049 145.892,303.943 147.411,310.031C147.969,312.268 154.745,339.427 141.486,338.228C131.257,337.303 130.332,313.515 126.571,312.911C125.732,312.776 122.322,314.983 123.043,308.744C124.645,294.887 136.677,292.875 129.182,291.056C109.997,286.4 101.023,284.366 102.669,256.68C103.05,250.264 105.842,236.486 106.806,235.679C110.982,232.178 106.008,246.531 125.875,271.112C126.488,271.871 140.473,285.922 143.874,286.713C145.36,287.059 153.808,286.28 154.039,285.319C155.163,280.648 120.466,269.336 115.079,218.351C115.006,217.662 115.318,203.946 109.861,212.506C66.394,280.686 127.703,342.175 125.487,350.876C123.937,356.963 105.725,362.994 117.528,373.621C128.604,383.594 128.93,383.15 139.939,393.268C153.691,405.909 154.734,405.685 156.326,405.344C157.82,405.023 180.018,384.546 203.286,359.414C204.263,358.359 214.975,345.559 219.147,348.812C220.925,350.198 218.272,350.964 221.534,376.901C221.91,379.885 217.226,381.052 209.915,388.328C191.052,407.101 190.672,406.679 189.036,408.313C177.262,420.069 175.33,422.648 167.499,424.279ZM384.753,248.161C384.638,248.574 383.376,253.105 381.815,252.646C380.706,252.32 380.866,252.049 368.254,247.658C363.512,246.007 368.881,244.163 369.056,234.404C369.248,223.683 370.403,208.661 350.783,208.511C335.834,208.398 329.405,209.801 328.364,205.959C313.512,151.152 275.544,134.067 248.186,121.238C240.206,117.497 234.023,117.143 239.501,114.624C263.192,103.73 384.561,78.579 392.45,173.765C395.12,205.982 390.14,225.852 384.753,248.161ZM306.426,211.205C302.256,214.787 301.236,218.266 298.258,213.701C283.166,190.56 247.424,172.323 213.259,169.227C181.441,166.344 174.374,171.755 177.665,165.17C188.316,143.858 210.797,128.563 216.963,129.434C225.32,130.615 250.623,138.999 267.686,152.807C281.906,164.315 291.503,171.29 306.496,198.332C310.298,205.19 313.124,207.127 306.426,211.205ZM290.463,237.915C294.681,245.755 296.287,248.419 292.429,250.163C278.755,256.344 277.585,257.884 276.827,255.341C271.625,237.893 266.939,222.747 234.255,197.393C228.424,192.87 226.239,192.723 228.257,191.207C229.849,190.011 262.604,202.788 278.546,221.141C286.487,230.283 290.144,237.381 290.463,237.915ZM449.588,295.954C442.942,299.892 436.361,304.974 434.005,301.157C429.468,293.808 429.814,293.357 430.261,292.774C430.769,292.111 435.768,289.215 436.261,288.929C437.465,288.231 438.085,287.872 453.654,288.456C453.911,288.466 457.206,288.589 455.523,291.076C455.178,291.585 454.878,292.028 449.588,295.954Z" style="fill:#876e2c;"/>
</svg>
